<?xml version="1.0" encoding="utf-8"?>
<!-- Generator: Adobe Illustrator 25.2.1, SVG Export Plug-In . SVG Version: 6.00 Build 0)  -->
<svg version="1.1" id="Camada_1" xmlns="http://www.w3.org/2000/svg" xmlns:xlink="http://www.w3.org/1999/xlink" x="0px" y="0px"
	 viewBox="0 0 425.2 71" style="enable-background:new 0 0 425.2 71;" xml:space="preserve">
<style type="text/css">
	.st0{fill:#E1523D;}
</style>
<g>
	<path class="st0" d="M6.8,13l-6.4-1.1V6.6h12.9c4.4,0,7.7-0.5,14.5-0.5C46,6.2,51.4,12.9,51.4,24.8c0,14.4-9.6,22.7-25.3,22.7
		c-2.7,0-6.1-0.2-6.8-0.3v16.8L30.8,65v5.1H0V65l6.8-0.9L6.8,13L6.8,13z M25.9,42.2c6.8,0,12.7-4,12.7-17.2
		c0-9.7-4.3-13.8-12.7-13.8c-3.4,0-5,0.4-6.7,0.5v30C20.4,42.1,22.6,42.2,25.9,42.2z"/>
	<path class="st0" d="M82.7,41v-2c0-6.6-1.6-9.4-9-9.4c-6.5,0-11.7,2.6-14.4,3.9L56.7,28c2-1.7,10.5-6.5,20.2-6.5
		c13.1,0,17.3,4.9,17.3,17.3V65h4.6v4.8c-2,0.5-7,1.3-10.4,1.3c-3.9,0-4.9-0.8-4.9-4.4v-2.3c-2.2,2.5-7.3,6.7-14.3,6.7
		c-7.8,0-14.4-5-14.4-14.3C54.7,45.9,67.3,41.1,82.7,41z M82.7,60.3v-14c-10.8,0-15.3,4.2-15.3,9.3c0,5.6,2.9,8.4,7.2,8.4
		C77.1,63.9,80.5,62.2,82.7,60.3z"/>
	<path class="st0" d="M108.8,30.7l-5.5-1.5v-5.9l14.2-1.8h0.3l2.1,1.7v3.3l-0.1,2.1c3.6-3.3,10.4-6.9,17.4-6.9
		c10.3,0,13.7,5.4,13.7,19.1v23.6l5.2,0.7v5.1h-22V65l4.6-0.7V40.7c0-8.5-1.4-11.8-7.3-11.8c-4,0-8,2.4-10.4,4.2v31.1l5.1,0.8v5.1
		h-22.3V65l5-0.8L108.8,30.7L108.8,30.7z"/>
	<path class="st0" d="M161.5,46.3c0-15.6,9.2-25,23-25c11.5,0,17.7,6.3,18,17.3c0,3.7-0.2,6.3-0.7,8.4h-27.8
		c0.4,10.2,4.9,16.4,13.2,16.4c4.6,0,9.9-1.9,12.5-3.8l2.1,4.7c-2.7,2.9-10.3,6.7-18,6.7C168.1,71,161.5,60.9,161.5,46.3z
		 M190.4,41.9c0.1-1.2,0.2-2.5,0.2-3.7c0-6.8-2-11.4-7.6-11.4c-5,0-8.7,3.1-9.1,15L190.4,41.9L190.4,41.9z"/>
	<path class="st0" d="M213.4,7.6l-6.3-1.1V1.9L222.9,0h0.2l2.3,1.6v62.6l6.2,0.7v5.1h-24.2v-5.1l6-0.8V7.6z"/>
	<path class="st0" d="M243.1,30.7l-6.1-1.6v-5.7l15.6-1.9h0.2l2.4,1.7v41.1L261,65v5.1h-23.9V65l6-0.8L243.1,30.7L243.1,30.7z
		 M241,8.4c0-4.3,2.8-7.5,7.5-7.5c4.9,0,7,3,7,6.4c0,4.4-2.7,7.5-7.8,7.5h-0.1C243.4,14.8,241,12,241,8.4z"/>
	<path class="st0" d="M271.4,30.7l-5.5-1.5v-5.9l14.2-1.8h0.3l2.1,1.7v3.3l-0.1,2.1c3.6-3.3,10.4-6.9,17.4-6.9
		c10.3,0,13.7,5.4,13.7,19.1v23.6l5.2,0.7v5.1h-22V65l4.6-0.7V40.7c0-8.5-1.4-11.8-7.3-11.8c-4,0-8,2.4-10.4,4.2v31.1l5.1,0.8v5.1
		h-22.3V65l5-0.8L271.4,30.7L271.4,30.7z"/>
	<path class="st0" d="M328.9,7.6l-6.5-1.1V1.9L338.3,0h0.3l2.2,1.6l0.1,19.1l-0.6,7.4c2.8-2.6,9.3-6.5,16.8-6.5
		c10.9,0,13.8,5.9,13.8,19.1v23.5l5.5,0.8v5.1h-22.5V65l5-0.8V40.7c0-8.3-1.2-11.8-7.4-11.8c-3.9,0-7.9,2.1-10.3,4.2v31.1l5.2,0.8
		v5.1h-22.1V65l4.8-0.7L328.9,7.6L328.9,7.6z"/>
	<path class="st0" d="M409.2,41v-2c0-6.6-1.6-9.4-9-9.4c-6.5,0-11.7,2.6-14.5,3.9l-2.6-5.5c2-1.7,10.5-6.5,20.2-6.5
		c13.1,0,17.3,4.9,17.3,17.3V65h4.6v4.8c-2,0.5-7,1.3-10.4,1.3c-3.9,0-4.9-0.8-4.9-4.4v-2.3c-2.2,2.5-7.3,6.7-14.3,6.7
		c-7.8,0-14.4-5-14.4-14.3C381.2,45.9,393.7,41.1,409.2,41z M409.2,60.3v-14c-10.8,0-15.3,4.2-15.3,9.3c0,5.6,2.9,8.4,7.2,8.4
		C403.6,63.9,407,62.2,409.2,60.3z"/>
</g>
</svg>
